<?xml version="1.0" encoding="iso-8859-1"?>
<!-- Generator: Adobe Illustrator 19.0.0, SVG Export Plug-In . SVG Version: 6.00 Build 0)  -->
<svg version="1.1" id="Layer_1" xmlns="http://www.w3.org/2000/svg" xmlns:xlink="http://www.w3.org/1999/xlink" x="0px" y="0px"
	 viewBox="0 0 460 460" style="enable-background:new 0 0 460 460;" xml:space="preserve">
<g id="XMLID_1000_">
	<path id="XMLID_1001_" style="fill:#146A8A;" d="M153.823,447.067L459.931,235.47c0.042-1.819,0.069-3.641,0.069-5.47
		C460,102.974,357.026,0,230,0S0,102.974,0,230C0,330.324,64.24,415.629,153.823,447.067z"/>
	<path id="XMLID_1002_" style="fill:#084B63;" d="M459.931,235.47L245,20.539L108.168,401.412l45.655,45.655
		C177.666,455.434,203.298,460,230,460C355.197,460,457.025,359.968,459.931,235.47z"/>
	<rect id="XMLID_1003_" x="230" y="223.234" style="fill:#82C8DB;" width="106.5" height="20"/>
	<rect id="XMLID_1004_" x="123.5" y="223.234" style="fill:#A3DDE9;" width="106.5" height="20"/>
	<rect id="XMLID_1005_" x="220" y="203.234" style="fill:#419EBE;" width="20" height="60"/>
	<polygon id="XMLID_53_" style="fill:#A3DDE9;" points="196.247,130.179 109.032,369.801 108.168,401.412 127.826,376.641 
		215.041,137.02 	"/>
	
		<rect id="XMLID_52_" x="24.665" y="224.309" transform="matrix(-0.342 0.9397 -0.9397 -0.342 449.2141 164.0671)" style="fill:#FFFFFF;" width="285" height="30"/>
	<polygon id="XMLID_51_" style="fill:#2089B0;" points="263.753,130.179 350.968,369.801 351.832,401.412 332.174,376.641 
		244.959,137.02 	"/>
	
		<rect id="XMLID_50_" x="150.341" y="224.318" transform="matrix(0.342 0.9397 -0.9397 0.342 417.5763 -117.7116)" style="fill:#419EBE;" width="285" height="30"/>
	<circle id="XMLID_49_" style="fill:#2089B0;" cx="326.18" cy="330.935" r="25"/>
	<rect id="XMLID_1006_" x="215" y="20.539" style="fill:#FFFFFF;" width="30" height="68.667"/>
	<path id="XMLID_1007_" style="fill:#D1EEF4;" d="M180,110.539c0,27.614,22.386,50,50,50l10-50l-10-50
		C202.386,60.539,180,82.925,180,110.539z"/>
	<path id="XMLID_1008_" style="fill:#82C8DB;" d="M230,60.539v20c-16.569,0-30,13.431-30,30s13.431,30,30,30v20
		c27.614,0,50-22.386,50-50S257.614,60.539,230,60.539z"/>
	<path id="XMLID_1009_" style="fill:#2089B0;" d="M230,80.539v60c16.569,0,30-13.431,30-30S246.569,80.539,230,80.539z"/>
</g>
<g>
</g>
<g>
</g>
<g>
</g>
<g>
</g>
<g>
</g>
<g>
</g>
<g>
</g>
<g>
</g>
<g>
</g>
<g>
</g>
<g>
</g>
<g>
</g>
<g>
</g>
<g>
</g>
<g>
</g>
</svg>
