<?xml version="1.0" encoding="iso-8859-1"?>
<!-- Generator: Adobe Illustrator 19.0.0, SVG Export Plug-In . SVG Version: 6.00 Build 0)  -->
<svg version="1.1" id="Capa_1" xmlns="http://www.w3.org/2000/svg" xmlns:xlink="http://www.w3.org/1999/xlink" x="0px" y="0px"
	 viewBox="0 0 469.342 469.342" style="enable-background:new 0 0 469.342 469.342;" xml:space="preserve">
<path style="fill:#F0EAF9;" d="M42.675,0.004h383.996c23.564,0,42.667,19.103,42.667,42.667v383.996
	c0,23.564-19.103,42.667-42.667,42.667H42.675c-23.564,0-42.667-19.103-42.667-42.667V42.671
	C0.008,19.107,19.111,0.004,42.675,0.004z"/>
<path style="fill:#E1D5F3;" d="M21.341,85.341h426.664c11.782,0,21.333,9.551,21.333,21.333v0.001
	c0,11.782-9.551,21.333-21.333,21.333H21.341c-11.782,0-21.333-9.551-21.333-21.333v-0.001C0.008,94.892,9.559,85.341,21.341,85.341
	z"/>
<path style="fill:#5628B4;" d="M0.008,85.338h234.667l0,0v384l0,0h-192c-23.564,0-42.667-19.103-42.667-42.667c0,0,0,0,0,0
	L0.008,85.338L0.008,85.338L0.008,85.338z"/>
<path style="fill:#3D068C;" d="M21.342,128.004h213.333V85.338H21.342C9.559,85.333,0.005,94.881,0,106.663
	C-0.005,118.445,9.543,128,21.325,128.004C21.331,128.004,21.336,128.004,21.342,128.004z"/>
<path style="fill:#5628B4;" d="M42.675,0.004h384c23.564,0,42.667,19.103,42.667,42.667c0,0,0,0,0,0v64l0,0H0.008l0,0v-64
	C0.008,19.107,19.111,0.004,42.675,0.004L42.675,0.004L42.675,0.004z"/>
<path style="fill:#6F48BF;" d="M42.675,0.004h384.004c11.782,0,21.333,9.551,21.333,21.333v0.001
	c0,11.782-9.551,21.333-21.333,21.333H42.675c-11.782,0-21.333-9.551-21.333-21.333v-0.001C21.342,9.555,30.893,0.004,42.675,0.004z
	"/>
<path style="fill:#421198;" d="M32.009,85.341h405.336c5.891,0,10.667,4.776,10.667,10.667v0c0,5.891-4.776,10.667-10.667,10.667
	H32.009c-5.891,0-10.667-4.776-10.667-10.667v0C21.342,90.117,26.118,85.341,32.009,85.341z"/>
<path style="fill:#D9C9EF;" d="M458.675,149.338c-5.891,0-10.667,4.775-10.667,10.666c0,0,0,0,0,0.001v266.667
	c0,11.782-9.551,21.333-21.333,21.333H309.342c-5.891,0-10.667,4.776-10.667,10.667c0,5.891,4.776,10.667,10.667,10.667h117.333
	c23.564,0,42.666-19.103,42.667-42.667V160.004C469.342,154.113,464.566,149.338,458.675,149.338
	C458.675,149.338,458.675,149.338,458.675,149.338L458.675,149.338z"/>
<path style="fill:#7047BF;" d="M10.674,192.001L10.674,192.001c5.891,0,10.667,4.776,10.667,10.667v170.666
	c0,5.891-4.776,10.667-10.667,10.667l0,0c-5.891,0-10.667-4.776-10.667-10.667V202.668C0.008,196.777,4.783,192.001,10.674,192.001z
	"/>
<circle style="fill:#F7B236;" cx="53.345" cy="53.341" r="10.667"/>
<circle style="fill:#B39DDD;" cx="96.005" cy="53.341" r="10.667"/>
<g>
	<circle style="fill:#D80E70;" cx="138.675" cy="53.341" r="10.667"/>
	<path style="fill:#D80E70;" d="M53.342,277.341h21.333c5.891,0,10.667,4.776,10.667,10.667l0,0c0,5.891-4.776,10.667-10.667,10.667
		H53.342c-5.891,0-10.667-4.776-10.667-10.667l0,0C42.675,282.117,47.451,277.341,53.342,277.341z"/>
	<path style="fill:#D80E70;" d="M53.342,320.001h21.333c5.891,0,10.667,4.776,10.667,10.667l0,0c0,5.891-4.776,10.667-10.667,10.667
		H53.342c-5.891,0-10.667-4.776-10.667-10.667l0,0C42.675,324.776,47.451,320.001,53.342,320.001z"/>
	<path style="fill:#D80E70;" d="M53.342,362.671h21.333c5.891,0,10.667,4.776,10.667,10.667l0,0c0,5.891-4.776,10.667-10.667,10.667
		H53.342c-5.891,0-10.667-4.776-10.667-10.667l0,0C42.675,367.447,47.451,362.671,53.342,362.671z"/>
	<path style="fill:#D80E70;" d="M53.342,405.341h21.333c5.891,0,10.667,4.776,10.667,10.667l0,0c0,5.891-4.776,10.667-10.667,10.667
		H53.342c-5.891,0-10.667-4.776-10.667-10.667l0,0C42.675,410.117,47.451,405.341,53.342,405.341z"/>
	<path style="fill:#D80E70;" d="M53.342,234.671h21.333c5.891,0,10.667,4.776,10.667,10.667l0,0c0,5.891-4.776,10.667-10.667,10.667
		H53.342c-5.891,0-10.667-4.776-10.667-10.667l0,0C42.675,239.447,47.451,234.671,53.342,234.671z"/>
	<path style="fill:#D80E70;" d="M53.342,192.001h21.333c5.891,0,10.667,4.776,10.667,10.667v0c0,5.891-4.776,10.667-10.667,10.667
		H53.342c-5.891,0-10.667-4.776-10.667-10.667v0C42.675,196.777,47.451,192.001,53.342,192.001z"/>
	<path style="fill:#D80E70;" d="M53.342,149.341h21.333c5.891,0,10.667,4.776,10.667,10.667v0c0,5.891-4.776,10.667-10.667,10.667
		H53.342c-5.891,0-10.667-4.776-10.667-10.667v0C42.675,154.117,47.451,149.341,53.342,149.341z"/>
</g>
<path style="fill:#F7B236;" d="M117.342,277.341h21.333c5.891,0,10.667,4.776,10.667,10.667l0,0c0,5.891-4.776,10.667-10.667,10.667
	h-21.333c-5.891,0-10.667-4.776-10.667-10.667l0,0C106.675,282.117,111.451,277.341,117.342,277.341z"/>
<g>
	<path style="fill:#B8A4DF;" d="M117.342,320.001h42.666c5.891,0,10.667,4.776,10.667,10.667l0,0
		c0,5.891-4.776,10.667-10.667,10.667h-42.666c-5.891,0-10.667-4.776-10.667-10.667l0,0
		C106.675,324.776,111.451,320.001,117.342,320.001z"/>
	<path style="fill:#B8A4DF;" d="M117.342,362.671h21.333c5.891,0,10.667,4.776,10.667,10.667l0,0
		c0,5.891-4.776,10.667-10.667,10.667h-21.333c-5.891,0-10.667-4.776-10.667-10.667l0,0
		C106.675,367.447,111.451,362.671,117.342,362.671z"/>
	<path style="fill:#B8A4DF;" d="M117.342,405.341h21.333c5.891,0,10.667,4.776,10.667,10.667l0,0
		c0,5.891-4.776,10.667-10.667,10.667h-21.333c-5.891,0-10.667-4.776-10.667-10.667l0,0
		C106.675,410.117,111.451,405.341,117.342,405.341z"/>
	<path style="fill:#B8A4DF;" d="M117.342,234.671h21.333c5.891,0,10.667,4.776,10.667,10.667l0,0
		c0,5.891-4.776,10.667-10.667,10.667h-21.333c-5.891,0-10.667-4.776-10.667-10.667l0,0
		C106.675,239.447,111.451,234.671,117.342,234.671z"/>
	<path style="fill:#B8A4DF;" d="M181.341,234.671L181.341,234.671c5.891,0,10.667,4.776,10.667,10.667l0,0
		c0,5.891-4.776,10.667-10.667,10.667l0,0c-5.891,0-10.667-4.776-10.667-10.667l0,0C170.675,239.447,175.45,234.671,181.341,234.671
		z"/>
	<path style="fill:#B8A4DF;" d="M117.342,192.001h63.996c5.891,0,10.667,4.776,10.667,10.667v0c0,5.891-4.776,10.667-10.667,10.667
		h-63.996c-5.891,0-10.667-4.776-10.667-10.667v0C106.675,196.777,111.451,192.001,117.342,192.001z"/>
	<path style="fill:#B8A4DF;" d="M117.342,149.341h42.666c5.891,0,10.667,4.776,10.667,10.667v0c0,5.891-4.776,10.667-10.667,10.667
		h-42.666c-5.891,0-10.667-4.776-10.667-10.667v0C106.675,154.117,111.451,149.341,117.342,149.341z"/>
</g>
<g>
	<path style="fill:#B39DDD;" d="M298.678,298.671h106.664c11.782,0,21.333,9.551,21.333,21.333v42.664
		c0,11.782-9.551,21.333-21.333,21.333H298.678c-11.782,0-21.333-9.551-21.333-21.333v-42.664
		C277.345,308.222,286.896,298.671,298.678,298.671z"/>
	<path style="fill:#B39DDD;" d="M288.012,405.341h63.996c5.891,0,10.667,4.776,10.667,10.667l0,0
		c0,5.891-4.776,10.667-10.667,10.667h-63.996c-5.891,0-10.667-4.776-10.667-10.667l0,0
		C277.345,410.117,282.121,405.341,288.012,405.341z"/>
	<path style="fill:#B39DDD;" d="M394.672,405.341h21.333c5.891,0,10.667,4.776,10.667,10.667l0,0
		c0,5.891-4.776,10.667-10.667,10.667h-21.333c-5.891,0-10.667-4.776-10.667-10.667l0,0
		C384.005,410.117,388.781,405.341,394.672,405.341z"/>
	<path style="fill:#B39DDD;" d="M298.678,149.341h106.664c11.782,0,21.333,9.551,21.333,21.333v42.664
		c0,11.782-9.551,21.333-21.333,21.333H298.678c-11.782,0-21.333-9.551-21.333-21.333v-42.664
		C277.345,158.892,286.896,149.341,298.678,149.341z"/>
	<path style="fill:#B39DDD;" d="M288.012,256.001h63.996c5.891,0,10.667,4.776,10.667,10.667l0,0
		c0,5.891-4.776,10.667-10.667,10.667h-63.996c-5.891,0-10.667-4.776-10.667-10.667l0,0
		C277.345,260.776,282.121,256.001,288.012,256.001z"/>
	<path style="fill:#B39DDD;" d="M394.672,256.001h21.333c5.891,0,10.667,4.776,10.667,10.667l0,0
		c0,5.891-4.776,10.667-10.667,10.667h-21.333c-5.891,0-10.667-4.776-10.667-10.667l0,0
		C384.005,260.776,388.781,256.001,394.672,256.001z"/>
</g>
<g>
</g>
<g>
</g>
<g>
</g>
<g>
</g>
<g>
</g>
<g>
</g>
<g>
</g>
<g>
</g>
<g>
</g>
<g>
</g>
<g>
</g>
<g>
</g>
<g>
</g>
<g>
</g>
<g>
</g>
</svg>
