<svg id="Capa_1" enable-background="new 0 0 497 497" height="512" viewBox="0 0 497 497" width="512" xmlns="http://www.w3.org/2000/svg"><g><path d="m174.694 398.545v88.481c0 8.232 9.422 12.908 15.978 7.929l23.537-17.874c3.559-2.703 8.484-2.703 12.043 0l23.537 17.874c6.556 4.979 15.978.303 15.978-7.929v-88.481z" fill="#ff97c0"/><path d="m174.694 398.544h91.073v62.368h-91.073z" fill="#ff71a7"/><path d="m385.554 18.12h-293.203c-20.27 0-36.702 16.432-36.702 36.702v339.388c0 20.27 16.432 36.702 36.702 36.702h293.203c30.815 0 55.796-24.981 55.796-55.796v-301.2c.001-30.816-24.98-55.796-55.796-55.796z" fill="#5c586f"/><path d="m85.649 394.21v-339.389c0-20.27 16.432-36.702 36.702-36.702h-30c-20.27 0-36.702 16.432-36.702 36.702v339.389c0 20.27 16.432 36.702 36.702 36.702h30c-20.27 0-36.702-16.432-36.702-36.702z" fill="#423e4f"/><path d="m335.44 430.912h54.932c1.685 0 3.333-.309 4.937-.868v-411.057c-1.604-.559-3.252-.867-4.937-.867h-54.932z" fill="#423e4f"/><path d="m347.19 0h-22.051c-10.007 0-18.12 8.112-18.12 18.12v412.792c0 10.007 8.112 18.119 18.12 18.119h22.051c10.007 0 18.12-8.112 18.12-18.119v-412.792c0-10.008-8.113-18.12-18.12-18.12z" fill="#ff97c0"/><g><g><path d="m134.307 212.809c-4.142 0-7.5-3.358-7.5-7.5 0-4.128-3.358-7.486-7.486-7.486s-7.486 3.358-7.486 7.486c0 4.142-3.358 7.5-7.5 7.5s-7.5-3.358-7.5-7.5c0-12.399 10.087-22.486 22.486-22.486s22.486 10.087 22.486 22.486c0 4.142-3.358 7.5-7.5 7.5z" fill="#423e4f"/></g><g><path d="m268.265 212.809c-4.142 0-7.5-3.358-7.5-7.5 0-4.128-3.358-7.486-7.486-7.486s-7.486 3.358-7.486 7.486c0 4.142-3.358 7.5-7.5 7.5s-7.5-3.358-7.5-7.5c0-12.399 10.087-22.486 22.486-22.486s22.486 10.087 22.486 22.486c0 4.142-3.358 7.5-7.5 7.5z" fill="#423e4f"/></g><g><path d="m186.3 237.567c-8.26 0-16.115-3.577-21.551-9.815-2.721-3.123-2.396-7.86.727-10.582 3.123-2.721 7.86-2.396 10.582.727 2.586 2.968 6.319 4.67 10.242 4.67s7.656-1.702 10.242-4.669c2.721-3.123 7.458-3.448 10.582-.727 3.123 2.721 3.448 7.459.727 10.582-5.436 6.236-13.291 9.814-21.551 9.814z" fill="#423e4f"/></g></g></g></svg>