<?xml version="1.0" encoding="iso-8859-1"?>
<!-- Generator: Adobe Illustrator 19.0.0, SVG Export Plug-In . SVG Version: 6.00 Build 0)  -->
<svg xmlns="http://www.w3.org/2000/svg" xmlns:xlink="http://www.w3.org/1999/xlink" version="1.1" id="Layer_1" x="0px" y="0px" viewBox="0 0 511.99 511.99" style="enable-background:new 0 0 511.99 511.99;" xml:space="preserve" width="512" height="512">
<g id="XMLID_730_">
	<g id="XMLID_731_">
		<path id="XMLID_732_" style="fill:#F1EDED;" d="M417.204,57.44v427.29c0,10.91-8.85,19.76-19.77,19.76H75.174    c-10.91,0-19.76-8.85-19.76-19.76V57.44c0-10.92,8.85-19.77,19.76-19.77h322.26C408.354,37.669,417.204,46.52,417.204,57.44z"/>
		<path id="XMLID_733_" style="fill:#DAD0CD;" d="M417.204,132.08v125.15c-2.38,0.89-4.91,1.34-7.44,1.34    c-8.1,0-15.46-4.46-19.2-11.64L288.684,51.61c-2.33-4.47-3.69-9.2-4.15-13.94h83.43L417.204,132.08z"/>
		<path id="XMLID_734_" style="fill:#DAD0CD;" d="M417.204,57.44v427.29c0,10.91-8.85,19.76-19.77,19.76h-22    c10.92,0,19.77-8.85,19.77-19.76V57.44c0-10.92-8.85-19.77-19.77-19.77h22C408.354,37.669,417.204,46.52,417.204,57.44z"/>
		<g id="XMLID_735_">
			<g id="XMLID_736_">
				<path id="XMLID_737_" style="fill:#FC4830;" d="M388.705,384.449c0,32.572-26.406,58.978-58.978,58.978      s-58.978-26.406-58.978-58.978c0-14.853,5.485-28.422,14.547-38.788c10.811-12.373,26.712-20.19,44.431-20.19      c25.793,0,47.722,16.563,55.726,39.628C387.559,371.157,388.705,377.669,388.705,384.449z"/>
				<path id="XMLID_738_" style="fill:#FF756E;" d="M385.454,365.099c-10.337,13.796-26.821,22.729-45.38,22.729      c-26.277,0-48.384-17.897-54.778-42.168c10.811-12.373,26.712-20.19,44.431-20.19      C355.52,325.471,377.449,342.034,385.454,365.099z"/>
				<path id="XMLID_739_" style="fill:#00ED97;" d="M231.704,316.409l-82.379,41.269l-51.102,25.595      c-6.997,3.508-15.1-2.125-14.25-9.912l23.559-214.566l7.837-71.36c0.81-7.382,9.171-11.266,15.328-7.135l34.42,23.075      l48.849,32.75c2.184,1.472,3.696,3.745,4.2,6.335l11.681,60.48l16.266,84.208C248.405,299.026,242.515,310.983,231.704,316.409z      "/>
				<path id="XMLID_740_" style="fill:#9FFFCD;" d="M165.749,111.202c0,26.821-21.741,48.562-48.552,48.562      c-3.311,0-6.542-0.336-9.665-0.968l7.837-71.36c0.81-7.382,9.171-11.266,15.328-7.135l34.42,23.075      C165.532,105.924,165.749,108.533,165.749,111.202z"/>
				<path id="XMLID_741_" style="fill:#00DF97;" d="M231.7,316.404l-82.38,41.275c-12.718-16.266-20.308-36.753-20.308-59.008      c0-52.94,42.919-95.859,95.859-95.859c1.67,0,3.33,0.04,4.971,0.129l16.269,84.21C248.406,299.03,242.517,310.984,231.7,316.404      z"/>
			</g>
		</g>
		<g id="XMLID_742_">
			<g id="XMLID_743_">
				<path id="XMLID_2262_" style="fill:#00ED97;" d="M427.585,262.416l22.522-11.747c2.329,4.465,4.045,8.923,5.116,13.043      c2.424,9.257,1.617,16.827-2.686,19.071c-4.311,2.249-10.98-1.422-17.184-8.707      C432.588,270.839,429.914,266.881,427.585,262.416z"/>
				<path id="XMLID_2261_" style="fill:#00DF97;" d="M427.585,262.416l22.522-11.747c2.329,4.465,4.045,8.923,5.116,13.043      c-0.5,0.315-1.016,0.617-1.555,0.898l-16.68,8.699c-0.539,0.281-1.091,0.536-1.635,0.766      C432.588,270.839,429.914,266.881,427.585,262.416z"/>
				<path id="XMLID_2260_" style="fill:#F1EDED;" d="M418.62,258.953l-11.47-21.991l33.787-17.622l11.47,21.991      c2.463,4.722,0.629,10.552-4.092,13.015l-16.68,8.699C426.905,265.513,421.083,263.675,418.62,258.953z"/>
				<path id="XMLID_2259_" style="fill:#A89F9D;" d="M310.511,10.484L310.511,10.484c12.912-6.735,28.839-1.727,35.574,11.186      L447.96,216.994c2.464,4.724,0.632,10.551-4.092,13.015l-29.652,15.466c-4.724,2.464-10.551,0.632-13.015-4.092L299.326,46.058      C292.591,33.146,297.599,17.219,310.511,10.484z"/>
				<path id="XMLID_2258_" style="fill:#00ED97;" d="M310.511,10.484L310.511,10.484c12.912-6.735,28.839-1.727,35.574,11.186      l9.812,18.812l-46.76,24.388l-9.812-18.812C292.591,33.146,297.599,17.219,310.511,10.484z"/>
			</g>
		</g>
	</g>
	<g id="XMLID_744_">
		<path id="XMLID_745_" d="M256.506,412.758l-8.399,8.4c-2.929,2.929-2.929,7.678,0.001,10.606c1.464,1.464,3.384,2.196,5.303,2.196    s3.839-0.732,5.304-2.197l8.399-8.4c2.929-2.929,2.929-7.678-0.001-10.606C264.185,409.829,259.436,409.828,256.506,412.758z"/>
		<path id="XMLID_746_" d="M196.096,195.191c-3.999,1.079-6.365,5.196-5.286,9.195l20.416,75.612    c0.889,3.292,3.873,5.545,7.235,5.545c0.189,0,0.381-0.007,0.572-0.021c3.591-0.272,6.481-3.059,6.886-6.638l4.761-42.203    l4.729,2.198c3.757,1.742,8.217,0.116,9.963-3.641c1.745-3.757,0.115-8.217-3.641-9.963l-14.175-6.588    c-2.188-1.016-4.73-0.917-6.834,0.263c-2.103,1.181-3.51,3.302-3.78,5.698l-1.51,13.385l-10.14-37.558    C204.211,196.477,200.089,194.112,196.096,195.191z"/>
		<path id="XMLID_747_" d="M208.998,117.746c5.864-1.496,14.383-2.508,23.646-2.854v8.142c-3.794,0.278-7.209,0.781-9.964,1.484    c-4.014,1.023-6.438,5.107-5.414,9.121c1.024,4.014,5.108,6.433,9.121,5.414c1.643-0.419,3.813-0.746,6.257-0.964v38.331    c-7.479-3.652-14.525-8.307-20.961-13.914l-42.979-37.449c-4.784-4.167-11.594-4.685-16.95-1.287    c-5.356,3.396-7.792,9.779-6.061,15.881l38.384,135.296L112.04,398.916c-3.523,6.063-3.139,13.345,1.005,19.003    s10.976,8.224,17.813,6.693c0.858-0.191,1.676-0.532,2.416-1.007l49.588-31.824l-34.438,68.394    c-1.666,3.308-0.668,7.335,2.349,9.482c2.9,2.065,7.139,1.783,9.729-0.883l22.203-22.852l21.457,21.457    c1.465,1.464,3.385,2.196,5.304,2.196s3.839-0.732,5.304-2.196c2.929-2.93,2.929-7.678,0-10.607l-21.609-21.609l2.771-2.852    l8.232,8.232c1.464,1.464,3.384,2.196,5.303,2.196s3.839-0.732,5.304-2.197c2.929-2.929,2.929-7.678-0.001-10.606l-8.384-8.383    l23.673-24.365l-5.068,17.867c-0.95,3.346,0.526,6.906,3.564,8.599c3.036,1.691,6.842,1.074,9.188-1.494l34.369-37.628    l75.111,38.019c0.45,0.229,0.922,0.41,1.409,0.543c6.834,1.869,14.042-0.554,18.362-6.171c4.319-5.616,4.811-13.204,1.25-19.33    l-39.651-68.236l16.661-16.842c2.128-2.151,2.755-5.37,1.589-8.163c-1.165-2.793-3.895-4.611-6.921-4.611h-25.518l25.699-11.876    c3.133-1.448,4.873-4.848,4.217-8.236c-0.657-3.388-3.542-5.891-6.988-6.063l-29.042-1.452l16.668-4.21    c3.383-0.854,5.729-3.927,5.663-7.415c-0.067-3.487-2.529-6.469-5.941-7.193l-13.772-2.924l21.809-41.247    c2.979-5.632,2.695-12.19-0.758-17.545s-9.32-8.324-15.67-7.931l-35.97,2.2c-11.188,0.684-22.209-0.572-32.675-3.625V138.17    c2.099,0.216,3.967,0.513,5.418,0.883c0.622,0.158,1.245,0.234,1.859,0.234c3.346,0,6.396-2.257,7.262-5.648    c1.023-4.014-1.4-8.098-5.414-9.121c-2.548-0.65-5.67-1.124-9.125-1.412v-8.185c8.969,0.367,17.023,1.35,22.807,2.826    c0.622,0.158,1.245,0.234,1.859,0.234c3.346,0,6.396-2.257,7.262-5.648c1.023-4.014-1.4-8.097-5.414-9.121    c-6.868-1.752-16.253-2.905-26.514-3.3v-1.926c0-4.143-3.357-7.5-7.5-7.5s-7.5,3.357-7.5,7.5v1.894    c-10.587,0.363-20.297,1.532-27.353,3.331c-4.014,1.024-6.438,5.107-5.414,9.121S204.991,118.765,208.998,117.746z     M281.234,200.82l35.97-2.2c1.819-0.106,3.111,1.865,2.252,3.491l-23.803,45.02l-11.314-2.402    c-4.05-0.859-8.034,1.728-8.895,5.779c-0.859,4.052,1.728,8.034,5.779,8.895l8.763,1.859l-33.924,8.567    c-3.601,0.909-5.993,4.315-5.628,8.011c0.366,3.695,3.381,6.566,7.089,6.751l48.639,2.433l-29.011,13.406    c-3.196,1.478-4.935,4.98-4.179,8.419c0.757,3.439,3.804,5.89,7.325,5.89h41.654l-8.06,8.147c-2.347,2.38-2.828,6.15-1.152,9.043    l42.535,73.199c0.663,1.142,0.272,2.07-0.172,2.648c-0.38,0.495-1.023,1.023-1.995,0.939l-79.306-40.142    c-3.005-1.521-6.653-0.852-8.925,1.633l-16.789,18.382l4.507-15.889c0.938-3.305-0.489-6.824-3.464-8.542    c-2.976-1.716-6.736-1.193-9.13,1.269l-56.199,57.842l24.794-49.242c1.521-3.02,0.833-6.683-1.678-8.945    c-2.512-2.264-6.228-2.566-9.071-0.739l-71.179,45.679c-1.639-0.231-2.456-2.198-1.66-3.568l73.637-126.723    c1.022-1.76,1.286-3.858,0.73-5.815l-38.529-135.81l40.982,35.709C223.863,193.014,252.06,202.606,281.234,200.82z"/>
		<path id="XMLID_750_" d="M55.414,195.228c4.143,0,7.5-3.357,7.5-7.5V57.439c0-6.763,5.502-12.265,12.266-12.265h107.553    c4.143,0,7.5-3.357,7.5-7.5s-3.357-7.5-7.5-7.5H75.18c-15.034,0-27.266,12.23-27.266,27.265v130.289    C47.914,191.87,51.271,195.228,55.414,195.228z"/>
		<path id="XMLID_751_" d="M459.44,252.905c0.289-0.637,0.555-1.289,0.768-1.967c1.374-4.368,0.964-9.011-1.154-13.073l-4.444-8.519    c2.479-4.795,2.68-10.68,0-15.82l-29.906-57.339V57.439c0-15.034-12.23-27.265-27.265-27.265H358.98L352.735,18.2    C344.099,1.643,323.603-4.8,307.043,3.834c-8.021,4.183-13.933,11.24-16.646,19.87c-0.67,2.132-1.124,4.297-1.367,6.47h-71.774    c-4.143,0-7.5,3.357-7.5,7.5s3.357,7.5,7.5,7.5h73.525c0.528,1.48,1.156,2.935,1.896,4.353l9.808,18.805    c0.001,0.002,0.002,0.005,0.004,0.008c0.001,0.002,0.002,0.003,0.003,0.005l92.059,176.504c2.117,4.062,5.689,7.056,10.06,8.43    c0.964,0.303,1.94,0.51,2.921,0.64l2.215,4.247c-0.027,0.26-0.042,0.523-0.042,0.79v225.77c0,6.763-5.502,12.265-12.265,12.265    H75.18c-6.764,0-12.266-5.502-12.266-12.265V222.251c0-4.143-3.357-7.5-7.5-7.5s-7.5,3.357-7.5,7.5v262.474    c0,15.034,12.231,27.265,27.266,27.265h322.26c15.034,0,27.265-12.23,27.265-27.265V272.317    c7.731,11.849,17.026,18.623,25.101,18.622c2.173,0,4.258-0.49,6.198-1.502C465.384,284.544,466.668,270.036,459.44,252.905z     M428.163,256.399c-0.653,0.339-1.251,0.265-1.636,0.145c-0.388-0.122-0.92-0.404-1.261-1.057l-3-5.752l20.488-10.685l3,5.752    c0.548,1.05,0.14,2.35-0.911,2.897L428.163,256.399z M304.706,28.203c1.512-4.808,4.806-8.739,9.274-11.07    c9.223-4.812,20.645-1.221,25.456,8.005L345.78,37.3l-33.46,17.452l-6.344-12.163C303.645,38.12,303.194,33.012,304.706,28.203z     M319.256,68.052l33.46-17.452l20.626,39.548c1.914,3.673,6.443,5.095,10.118,3.181c3.672-1.915,5.097-6.445,3.181-10.118    l-19.838-38.036h30.636c6.763,0,12.265,5.502,12.265,12.265v69.988l-7.061-13.537c-1.916-3.673-6.445-5.098-10.118-3.181    c-3.672,1.915-5.097,6.445-3.181,10.118l51.966,99.633c0.548,1.051,0.139,2.352-0.911,2.899l-29.653,15.466    c-0.653,0.339-1.251,0.266-1.636,0.145c-0.387-0.122-0.919-0.403-1.26-1.057L319.256,68.052z M448.839,275.698    c-1.78-0.732-5.323-3.193-9.272-8.329l7.75-4.042C449.271,269.503,449.261,273.815,448.839,275.698z"/>
		<path id="XMLID_757_" d="M369.867,464.21c-4.143,0-7.5,3.357-7.5,7.5s3.357,7.5,7.5,7.5h0.103c4.143,0,7.5-3.357,7.5-7.5    s-3.357-7.5-7.5-7.5H369.867z"/>
		<path id="XMLID_758_" d="M393.869,452.44c0-4.143-3.357-7.5-7.5-7.5h-16.502c-4.143,0-7.5,3.357-7.5,7.5s3.357,7.5,7.5,7.5h16.502    C390.512,459.94,393.869,456.582,393.869,452.44z"/>
		<path id="XMLID_759_" d="M293.853,164.13l0.103,0.001c0.024,0,0.048,0,0.073,0c4.108,0,7.459-3.312,7.498-7.429    c0.039-4.142-3.287-7.531-7.429-7.571l-0.103-0.001c-0.024,0-0.048,0-0.073,0c-4.108,0-7.459,3.312-7.498,7.429    C286.386,160.701,289.711,164.09,293.853,164.13z"/>
		<path id="XMLID_760_" d="M310.427,144.861c4.143,0,7.5-3.357,7.5-7.5s-3.357-7.5-7.5-7.5h-16.502c-4.143,0-7.5,3.357-7.5,7.5    s3.357,7.5,7.5,7.5H310.427z"/>
		<path id="XMLID_761_" d="M123.327,213.531h0.103c4.143,0,7.5-3.357,7.5-7.5s-3.357-7.5-7.5-7.5h-0.103c-4.143,0-7.5,3.357-7.5,7.5    S119.185,213.531,123.327,213.531z"/>
		<path id="XMLID_762_" d="M123.327,194.26h16.502c4.143,0,7.5-3.357,7.5-7.5s-3.357-7.5-7.5-7.5h-16.502    c-4.143,0-7.5,3.357-7.5,7.5S119.185,194.26,123.327,194.26z"/>
	</g>
</g>















</svg>
